<svg width="276" height="51.2" xmlns="http://www.w3.org/2000/svg" version="1.1" xml:space="preserve">
 <g>
  <title>Layer 1</title>
  <g id="svg_1">
   <g id="svg_2">
    <path class="st0" d="m32.2,43.1c0,2.9 2.3,5.2 5.2,5.2s5.2,-2.3 5.2,-5.2s-2.4,-5.2 -5.2,-5.2s-5.2,2.4 -5.2,5.2zm3.4,0c0,-1 0.8,-1.8 1.8,-1.8s1.8,0.8 1.8,1.8s-0.8,1.9 -1.8,1.9s-1.8,-0.9 -1.8,-1.9z" fill="#0167F3" id="svg_3"/>
    <path class="st0" d="m44.2,43.1c0,2.9 2.3,5.2 5.2,5.2s5.2,-2.3 5.2,-5.2s-2.4,-5.2 -5.2,-5.2s-5.2,2.4 -5.2,5.2zm3.4,0c0,-1 0.8,-1.8 1.8,-1.8s1.8,0.8 1.8,1.8s-0.8,1.9 -1.8,1.9s-1.8,-0.9 -1.8,-1.9z" fill="#0167F3" id="svg_4"/>
    <path class="st0" d="m61.8,16.1c-0.4,-0.6 -1.4,-1 -2.2,-1l-32,0l-2.4,-10.4c-0.2,-1 -1.1,-1.8 -2.1,-1.8l-5.9,0c-1.2,0 -2.1,0.8 -2.1,2s0.8,2.1 2.1,2.1l4.3,0l5.9,26.8c0.2,1 1.1,1.8 2.1,1.8l25.2,0c1.4,0 2.6,-0.8 2.8,-2.2l4.7,-14.5c0.5,-1.2 0.3,-2.2 -0.4,-2.8zm-23.9,15.4l-6.5,0l-1.2,-5.8l7.6,0l0,5.8l0.1,0zm0,-7.8l-8,0l-0.9,-4.5l8.9,0l0,4.5zm8.7,7.8l-6.9,0l0,-5.8l6.9,0l0,5.8zm0,-7.8l-6.9,0l0,-4.5l6.9,0l0,4.5zm7.3,7.8l-5.3,0l0,-5.8l7.2,0l-1.9,5.8zm2.5,-7.8l-7.9,0l0,-4.5l9.4,0l-1.5,4.5z" fill="#0167F3" id="svg_5"/>
   </g>
   <g id="svg_6">
    <path class="st0" d="m24.9,35.4c0,0.1 0,0.2 -0.1,0.2l-5,0c-0.8,0 -1.5,-0.7 -1.5,-1.5c0,-0.4 0.2,-0.8 0.4,-1c0.3,-0.3 0.6,-0.4 1,-0.4l1.8,0c0.4,0 0.8,-0.2 1,-0.4s0.3,-0.4 0.4,-0.6c0.2,-1 -0.6,-1.9 -1.6,-1.9l-10.8,0c-0.8,0 -1.5,-0.7 -1.5,-1.5c0,-0.4 0.2,-0.8 0.4,-1c0.3,-0.3 0.6,-0.4 1,-0.4l5,0c0.4,0 0.8,-0.2 1,-0.4c0.2,-0.2 0.3,-0.4 0.4,-0.6c0.2,-1 -0.6,-1.9 -1.6,-1.9l-1.5,0c-0.8,0 -1.5,-0.7 -1.5,-1.5c0,-0.4 0.2,-0.8 0.4,-1c0.3,-0.3 0.6,-0.4 1,-0.4l4.9,0c0.4,0 0.8,-0.2 1,-0.4c0.3,-0.3 0.4,-0.6 0.4,-1c0,-0.8 -0.6,-1.4 -1.3,-1.5l-0.1,0l-0.2,0l-14.3,0c-0.8,0 -1.5,-0.7 -1.5,-1.5c0,-0.4 0.2,-0.8 0.4,-1c0.3,-0.3 0.6,-0.4 1,-0.4l9.8,0c0.4,0 0.7,-0.2 0.9,-0.4s0.3,-0.4 0.4,-0.6c0.2,-1 -0.6,-1.9 -1.6,-1.9l-2.6,0c-0.8,0 -1.5,-0.7 -1.5,-1.5c0,-0.4 0.2,-0.8 0.4,-1c0.3,-0.3 0.6,-0.4 1,-0.4l8.2,0c0.1,0 0.1,0 0.1,0.1l5.9,25.8z" fill="#0167F3" id="svg_7"/>
    <path class="st0" d="m17.3,34.1c0,0.4 -0.2,0.8 -0.4,1c-0.3,0.3 -0.6,0.4 -1,0.4l-3.1,0c-0.8,0 -1.5,-0.6 -1.5,-1.5c0,-0.4 0.2,-0.8 0.4,-1c0.3,-0.3 0.6,-0.4 1,-0.4l3.1,0c0.9,0.1 1.5,0.8 1.5,1.5z" fill="#0167F3" id="svg_8"/>
    <path class="st0" d="m10.8,22.5c0,0.4 -0.2,0.8 -0.4,1c-0.2,0.3 -0.6,0.4 -1,0.4l-3,0c-0.7,0.1 -1.4,-0.6 -1.4,-1.4c0,-0.4 0.2,-0.8 0.4,-1c0.3,-0.3 0.6,-0.4 1,-0.4l3,0c0.8,0 1.4,0.7 1.4,1.4z" fill="#0167F3" id="svg_9"/>
   </g>
   <g id="svg_10">
    <path class="st0" d="m82.1,37.6c-1.8,0 -3.5,-0.3 -4.9,-1c-1.5,-0.6 -2.7,-1.6 -3.6,-2.8s-1.5,-2.6 -1.8,-4.3l4.8,-0.7c0.3,1.4 1,2.5 2.1,3.3s2.3,1.1 3.6,1.1c0.8,0 1.5,-0.1 2.2,-0.4c0.7,-0.2 1.3,-0.6 1.8,-1.1c0.5,-0.5 0.7,-1 0.7,-1.7c0,-0.2 0,-0.5 -0.1,-0.7s-0.2,-0.5 -0.4,-0.7c-0.2,-0.2 -0.4,-0.4 -0.7,-0.6s-0.7,-0.3 -1.2,-0.5l-6.4,-1.9c-0.5,-0.1 -1,-0.3 -1.7,-0.6c-0.6,-0.3 -1.2,-0.6 -1.8,-1.1s-1.1,-1.1 -1.5,-1.8s-0.6,-1.7 -0.6,-2.9c0,-1.6 0.4,-3 1.2,-4.1s1.9,-1.9 3.3,-2.4s2.9,-0.8 4.6,-0.8s3.2,0.3 4.5,0.9s2.4,1.4 3.3,2.4s1.5,2.4 1.9,3.9l-5,0.9c-0.2,-0.8 -0.5,-1.5 -1,-2s-1.1,-1 -1.7,-1.2c-0.7,-0.3 -1.4,-0.4 -2.1,-0.5c-0.7,0 -1.4,0.1 -2.1,0.3c-0.6,0.2 -1.2,0.5 -1.6,1c-0.4,0.4 -0.6,0.9 -0.6,1.5c0,0.5 0.2,1 0.5,1.3s0.7,0.6 1.2,0.8c0.5,0.2 1,0.4 1.5,0.5l4.3,1.2c0.6,0.2 1.3,0.4 2.1,0.7s1.5,0.7 2.2,1.2s1.3,1.1 1.8,2c0.5,0.8 0.7,1.8 0.7,3.1c0,1.3 -0.3,2.5 -0.8,3.5c-0.6,1 -1.3,1.8 -2.2,2.4c-0.9,0.6 -2,1.1 -3.2,1.4s-2.1,0.4 -3.3,0.4z" fill="#0167F3" id="svg_11"/>
    <path class="st0" d="m112.3,26.8l0,10.3l-4.7,0l0,-8.7c0,-0.4 0,-1 -0.1,-1.6c0,-0.6 -0.2,-1.3 -0.4,-2c-0.2,-0.7 -0.6,-1.2 -1.2,-1.7c-0.5,-0.4 -1.3,-0.7 -2.3,-0.7c-0.4,0 -0.8,0.1 -1.3,0.2s-0.9,0.4 -1.3,0.7c-0.4,0.4 -0.7,0.9 -1,1.6s-0.4,1.6 -0.4,2.8l0,9.3l-4.6,0l0,-24.4l4.1,0l0,8c0.4,-0.5 0.9,-0.9 1.5,-1.3c1.2,-0.8 2.7,-1.2 4.5,-1.2c1.4,0 2.6,0.3 3.5,0.7c0.9,0.5 1.6,1.1 2.1,1.8c0.5,0.8 0.9,1.5 1.1,2.4c0.2,0.8 0.4,1.5 0.4,2.2c0,0.8 0.1,1.3 0.1,1.6z" fill="#0167F3" id="svg_12"/>
    <path class="st0" d="m124.3,37.6c-1.9,0 -3.5,-0.4 -4.9,-1.2s-2.5,-2 -3.3,-3.4c-0.8,-1.5 -1.2,-3.1 -1.2,-5s0.4,-3.6 1.2,-5.1c0.8,-1.5 1.9,-2.6 3.3,-3.4s3,-1.2 4.8,-1.2c1.9,0 3.5,0.4 4.9,1.2c1.4,0.8 2.5,2 3.3,3.4c0.8,1.5 1.2,3.1 1.2,5s-0.4,3.6 -1.2,5.1s-1.9,2.6 -3.3,3.4c-1.3,0.8 -3,1.2 -4.8,1.2zm0,-4.3c1.5,0 2.6,-0.5 3.3,-1.5c0.7,-1 1.1,-2.3 1.1,-3.9s-0.4,-2.9 -1.1,-3.9c-0.7,-1 -1.8,-1.5 -3.3,-1.5c-1,0 -1.8,0.2 -2.5,0.7c-0.6,0.5 -1.1,1.1 -1.4,1.9s-0.5,1.7 -0.5,2.8c0,1.6 0.4,3 1.1,3.9c0.8,1 1.8,1.5 3.3,1.5z" fill="#0167F3" id="svg_13"/>
    <path class="st0" d="m153.1,22.9c-0.7,-1.5 -1.7,-2.6 -3,-3.5c-1.3,-0.8 -2.8,-1.3 -4.6,-1.3s-3.2,0.4 -4.4,1.3c-0.1,0.1 -0.2,0.2 -0.3,0.3l0,-1l-4.1,0l0,26.6l4.7,0l0,-8.8c1.2,0.8 2.7,1.2 4.4,1.2s3.2,-0.4 4.5,-1.3c1.3,-0.9 2.3,-2 3,-3.5s1.1,-3.1 1.1,-5c-0.2,-1.9 -0.5,-3.5 -1.3,-5zm-4.2,7.8c-0.3,0.8 -0.8,1.5 -1.4,2s-1.5,0.8 -2.5,0.8s-1.9,-0.2 -2.5,-0.7s-1.1,-1.1 -1.3,-2c-0.3,-0.8 -0.4,-1.8 -0.4,-2.9s0.1,-2.1 0.4,-2.9c0.3,-0.8 0.7,-1.5 1.3,-2s1.4,-0.7 2.4,-0.7s1.9,0.3 2.5,0.8c0.7,0.5 1.2,1.2 1.5,2c0.3,0.9 0.5,1.8 0.5,2.8c-0.1,1.1 -0.2,2 -0.5,2.8z" fill="#0167F3" id="svg_14"/>
   </g>
  </g>
  <path fill="#000000" stroke-width="0" opacity="NaN" d="m157.5,18.6l4.5,-0.88572" id="svg_20"/>
  <text x="-265.10714" y="-6.75715" id="svg_22" fill="#000000" stroke-width="0" font-size="30" font-family="Noto Sans JP" text-anchor="start" xml:space="preserve" font-weight="bold">Sphere</text>
  <text x="-175.75" y="20.24285" id="svg_23" fill="#000000" stroke-width="0" font-size="30" font-family="Noto Sans JP" text-anchor="start" xml:space="preserve" font-weight="bold">Sphere</text>
  <text x="-252.49999" y="-27.61429" id="svg_25" fill="#000000" stroke-width="0" font-size="34" font-family="'Alegreya'" text-anchor="start" xml:space="preserve" font-weight="bold" stroke="null">Sphere</text>
  <text fill="#ffffff" stroke="null" stroke-width="0" x="155" y="37.17143" id="svg_26" font-size="35" font-family="'Public Sans'" text-anchor="start" xml:space="preserve" font-weight="bold">Sphere</text>
 </g>

</svg>